<?xml version="1.0" standalone="no"?>
<!DOCTYPE svg PUBLIC "-//W3C//DTD SVG 20010904//EN"
 "http://www.w3.org/TR/2001/REC-SVG-20010904/DTD/svg10.dtd">
<svg version="1.0" xmlns="http://www.w3.org/2000/svg"
 width="580.000000pt" height="580.000000pt" viewBox="0 0 580.000000 580.000000"
 preserveAspectRatio="xMidYMid meet">
<metadata>
Created by potrace 1.14, written by Peter Selinger 2001-2017
</metadata>
<g transform="translate(0.000000,580.000000) scale(0.100000,-0.100000)"
fill="#000000" stroke="none">
<path d="M3225 5781 c-11 -4 -53 -7 -92 -7 -42 1 -73 -3 -73 -9 0 -5 -5 -3
-10 5 -5 8 -10 11 -10 5 0 -6 -29 -10 -68 -10 -37 0 -70 -4 -74 -10 -5 -6 -8
-5 -8 3 0 9 -5 10 -18 3 -13 -7 -23 -6 -30 1 -7 7 -12 8 -12 3 0 -6 -28 -11
-63 -12 -210 -6 -257 -9 -257 -16 0 -4 -9 -3 -19 3 -12 6 -22 6 -26 1 -6 -10
-37 -7 -57 5 -6 4 -8 3 -5 -3 3 -5 -17 -9 -51 -8 -31 0 -61 -1 -66 -4 -5 -2
-45 -5 -90 -6 -44 -2 -82 -4 -83 -5 -7 -5 -61 -3 -75 2 -9 4 -19 4 -23 0 -3
-4 -27 -7 -53 -8 -155 -6 -284 -14 -294 -20 -5 -4 -14 0 -19 7 -5 8 -9 10 -9
4 0 -6 -44 -12 -103 -14 -126 -4 -192 -8 -192 -11 0 -1 -10 -3 -23 -4 -12 -2
-22 1 -22 6 0 5 -10 4 -21 -3 -15 -8 -19 -8 -15 0 5 8 0 8 -16 3 -13 -5 -49
-8 -81 -8 -31 1 -57 -3 -57 -8 0 -5 -6 -3 -13 3 -8 6 -17 8 -21 4 -6 -6 -78
-10 -283 -15 -57 -2 -103 -5 -103 -8 0 -3 -17 -4 -38 -3 -39 2 -145 -43 -136
-59 3 -4 0 -8 -6 -8 -6 0 -9 -4 -6 -9 4 -5 1 -11 -5 -13 -16 -5 -16 -128 0
-138 7 -4 12 -10 12 -14 -3 -19 0 -27 8 -22 5 3 11 0 14 -7 5 -14 116 -73 129
-69 5 1 8 -2 8 -8 0 -5 7 -10 15 -10 8 0 15 -5 15 -11 0 -6 7 -9 15 -5 9 3 15
0 15 -9 0 -8 4 -14 8 -13 10 3 84 -33 93 -45 3 -5 9 -8 13 -8 22 3 25 -1 17
-21 -4 -13 -7 -33 -6 -45 1 -13 -3 -23 -8 -23 -5 0 -7 -6 -4 -14 3 -7 0 -19
-6 -25 -6 -6 -8 -11 -5 -11 3 0 0 -23 -8 -52 -7 -29 -11 -54 -9 -56 2 -3 0
-12 -5 -22 -5 -9 -12 -32 -15 -51 -3 -19 -8 -47 -11 -63 -3 -16 -7 -33 -10
-38 -3 -5 -7 -19 -9 -31 -9 -56 -22 -120 -25 -124 -5 -7 -24 -116 -22 -125 1
-5 -2 -8 -7 -8 -4 0 -7 -11 -6 -25 2 -14 0 -25 -4 -25 -4 0 -8 -10 -9 -22 -2
-23 -9 -59 -12 -68 -1 -3 -3 -9 -5 -15 -1 -5 -3 -14 -5 -20 -3 -12 -3 -14 -14
-77 -10 -57 -29 -114 -37 -113 -4 0 -16 -9 -28 -19 -12 -11 -21 -16 -21 -13 0
4 -10 -1 -21 -11 -39 -31 -58 -55 -53 -64 3 -4 1 -8 -5 -8 -21 0 -47 -145 -29
-156 4 -3 8 -14 8 -26 0 -37 62 -112 115 -137 35 -17 39 -18 66 -20 25 -1 34
14 -86 -133 -253 -306 -412 -679 -466 -1088 -16 -121 -16 -426 0 -550 62 -489
271 -920 611 -1260 346 -347 786 -562 1265 -621 128 -16 423 -16 545 0 681 86
1258 465 1604 1054 219 371 319 812 286 1250 -21 283 -73 494 -183 748 -16 36
-16 37 16 80 17 24 26 39 18 35 -10 -6 -9 -3 2 15 8 13 13 32 12 42 -2 9 1 17
6 17 4 0 6 6 3 14 -3 8 -1 17 4 20 6 3 8 15 5 26 -3 11 -1 20 4 20 6 0 9 11 8
25 -2 14 2 25 8 25 7 0 5 5 -3 10 -12 7 -12 10 -1 10 7 0 11 6 8 15 -4 8 -2
17 4 20 5 4 7 11 4 16 -4 5 -2 9 3 9 5 0 8 13 6 30 -2 16 1 32 6 35 6 3 10 17
10 31 0 14 5 35 11 46 9 16 8 19 -3 12 -11 -6 -11 -5 1 9 7 9 10 17 6 17 -4 0
-3 6 2 13 6 6 9 20 8 30 -2 9 0 17 4 17 5 0 9 15 10 33 3 54 4 57 12 57 5 0 6
7 3 15 -4 8 -1 15 6 15 10 0 10 3 0 15 -10 12 -10 15 0 15 7 0 10 7 7 15 -4 8
-2 17 3 20 5 3 7 14 5 25 -2 11 0 20 5 20 5 0 6 7 3 17 -5 12 -3 14 7 8 8 -5
11 -4 7 2 -5 8 -162 11 -162 3 0 -1 -38 -2 -85 -3 -47 -2 -91 -6 -97 -10 -8
-5 -13 -4 -13 3 0 8 -6 8 -20 0 -15 -8 -20 -8 -20 1 0 7 -5 8 -12 2 -7 -4 -43
-8 -80 -8 -38 0 -68 -2 -68 -5 0 -3 -36 -5 -80 -5 -44 1 -80 -2 -80 -5 0 -7
-54 -5 -68 4 -6 3 -13 2 -16 -2 -3 -5 -34 -9 -68 -8 -53 1 -71 6 -108 33 -66
45 -156 103 -162 103 -3 0 -29 14 -59 31 -30 17 -46 28 -36 25 9 -3 17 -2 17
2 0 11 74 8 82 -3 5 -6 8 -5 8 2 0 9 13 12 40 10 22 -2 42 1 44 7 2 6 5 5 5
-2 1 -7 6 -10 12 -7 6 4 65 9 132 11 155 6 179 8 194 17 6 4 15 2 19 -4 4 -8
9 -7 15 2 6 9 9 10 9 2 0 -6 8 -10 18 -8 9 2 17 4 17 5 0 2 159 10 272 13 46
2 86 6 89 10 4 3 14 2 23 -3 10 -5 23 -5 31 0 8 5 21 5 31 -1 12 -6 20 -5 24
1 4 6 22 9 41 6 23 -4 34 -2 34 7 0 8 4 7 10 -3 5 -8 10 -10 10 -5 0 6 35 10
86 10 47 -1 88 3 90 7 3 4 15 3 27 -1 12 -5 32 -5 45 0 15 6 22 5 22 -4 0 -8
3 -8 8 -2 6 9 94 16 254 19 32 1 58 5 58 10 0 5 6 3 13 -3 8 -6 17 -8 20 -4 6
6 136 13 264 15 33 0 50 4 46 11 -4 6 -1 7 8 2 15 -10 79 -14 79 -5 0 3 18 6
40 6 23 0 37 -3 33 -9 -4 -6 -1 -7 8 -1 14 9 25 11 83 13 19 0 41 8 50 16 8 8
17 15 20 15 10 0 42 36 50 56 16 37 18 96 5 127 -16 39 -49 78 -60 71 -4 -2
-13 5 -19 16 -6 11 -17 20 -25 20 -17 0 -97 40 -106 53 -3 5 -8 8 -10 7 -10
-4 -59 21 -59 29 0 6 -7 8 -15 5 -8 -4 -15 -1 -15 5 0 6 -6 11 -14 11 -8 0
-21 6 -28 13 -7 7 -17 14 -23 15 -30 6 -45 14 -40 23 3 5 -1 6 -9 3 -9 -3 -16
-1 -16 5 0 6 -8 11 -17 11 -10 0 -29 9 -43 20 -14 11 -33 20 -42 20 -10 0 -18
4 -18 9 0 5 -15 14 -32 21 -18 8 -41 20 -50 28 -10 8 -18 12 -18 9 0 -4 -15 2
-32 13 -18 11 -45 25 -60 31 -16 6 -28 15 -28 20 0 5 -9 9 -20 9 -11 0 -20 5
-20 10 0 6 -8 10 -18 10 -10 0 -29 10 -42 23 -14 12 -26 21 -28 19 -5 -6 -62
23 -62 31 0 5 -4 5 -10 2 -5 -3 -10 -1 -10 5 0 6 -4 9 -9 5 -5 -3 -17 2 -25
11 -9 8 -16 13 -16 9 0 -4 -7 1 -16 9 -8 9 -20 14 -25 11 -5 -4 -9 -2 -9 3 0
9 -37 25 -52 23 -5 -1 -8 3 -8 7 0 5 -31 23 -70 42 -38 19 -70 38 -70 43 0 4
-5 5 -10 2 -6 -3 -22 3 -36 14 -15 12 -33 21 -40 21 -8 0 -14 4 -14 9 0 7 -36
22 -43 18 -1 -1 -15 8 -31 20 -16 13 -32 20 -37 17 -5 -3 -9 -1 -9 4 0 5 -15
15 -32 23 -18 7 -36 17 -39 21 -3 5 -15 10 -27 11 -11 0 -18 5 -16 9 3 4 -1 8
-9 8 -8 0 -31 11 -51 25 -20 14 -43 25 -50 25 -8 0 -19 7 -26 15 -7 8 -16 12
-21 9 -5 -3 -9 0 -9 7 0 7 -3 9 -6 6 -4 -4 -20 3 -35 14 -16 11 -29 17 -29 13
0 -4 -12 3 -27 17 -14 13 -23 17 -19 9 5 -10 3 -10 -6 2 -8 9 -23 18 -33 20
-11 1 -25 8 -32 13 -7 6 -18 15 -25 21 -7 5 -16 11 -20 12 -34 10 -45 15 -58
23 -8 5 -26 14 -40 21 -14 7 -33 18 -43 27 -9 8 -20 11 -23 8 -4 -3 -15 4 -26
16 -11 12 -16 15 -12 7 5 -11 2 -10 -13 3 -11 9 -23 14 -26 10 -4 -3 -7 -1 -7
5 0 7 -7 12 -15 12 -8 0 -15 5 -15 11 0 5 -5 7 -10 4 -6 -3 -13 0 -16 9 -3 8
-12 12 -20 9 -8 -3 -14 0 -14 7 0 6 -5 8 -10 5 -6 -3 -12 0 -15 7 -3 8 -18 13
-33 12 -15 0 -29 2 -32 6 -3 4 -14 4 -25 1z m-2145 -698 c0 -5 25 -19 55 -33
30 -14 55 -29 55 -33 0 -5 4 -6 9 -2 5 3 16 -1 24 -9 8 -8 17 -12 21 -9 3 4 6
0 6 -7 0 -7 3 -10 6 -7 4 4 19 -2 33 -12 30 -20 62 -35 74 -33 4 1 7 -2 7 -7
0 -5 14 -14 30 -20 17 -5 30 -15 30 -20 0 -6 3 -10 8 -9 11 4 102 -36 102 -44
0 -5 6 -8 14 -8 7 0 19 -7 26 -15 7 -8 16 -13 20 -10 4 2 16 -4 27 -15 12 -10
23 -16 26 -13 3 3 18 -4 33 -16 14 -11 30 -18 35 -15 5 3 9 2 9 -3 0 -4 24
-19 53 -33 28 -14 58 -31 65 -38 8 -7 18 -10 23 -7 5 4 9 2 9 -2 0 -5 16 -15
35 -22 19 -7 35 -17 35 -22 0 -5 7 -9 16 -9 8 0 22 -7 31 -15 8 -8 19 -13 24
-10 5 4 9 1 9 -5 0 -6 4 -9 9 -6 5 4 11 2 13 -3 1 -4 23 -18 48 -29 25 -11 59
-29 75 -38 66 -38 81 -45 108 -55 15 -6 27 -15 27 -21 0 -5 5 -6 10 -3 5 3 10
1 10 -5 0 -6 5 -8 10 -5 6 3 10 1 10 -5 0 -7 6 -10 13 -7 8 3 20 -3 27 -13 8
-11 18 -16 22 -13 5 3 17 -2 26 -10 19 -16 53 -31 65 -29 4 1 7 -3 7 -9 0 -6
-9 -8 -22 -3 -13 4 -119 8 -235 8 -117 0 -213 4 -213 9 0 4 -5 5 -10 2 -6 -3
-22 3 -36 14 -15 11 -30 18 -35 15 -5 -3 -9 0 -9 5 0 6 -7 11 -15 11 -8 0 -15
5 -15 12 0 6 -3 9 -6 5 -3 -3 -23 4 -43 17 -20 12 -51 28 -68 35 -18 8 -33 17
-33 22 0 5 -3 8 -7 8 -14 -3 -73 25 -73 34 0 4 -4 5 -10 2 -5 -3 -10 -1 -10 5
0 6 -4 9 -9 6 -5 -4 -11 -3 -13 1 -4 10 -169 96 -174 91 -1 -2 -6 -19 -9 -38
-3 -19 -10 -52 -14 -72 -5 -20 -6 -39 -3 -43 3 -3 0 -5 -7 -5 -6 0 -11 -6 -10
-12 4 -23 -14 -93 -25 -100 -7 -5 -7 -8 3 -8 9 0 10 -4 4 -12 -5 -7 -9 -20 -8
-28 1 -8 -2 -22 -6 -31 -5 -9 -10 -29 -13 -45 -15 -79 -15 -79 -80 -107 -75
-33 -248 -136 -329 -195 -31 -24 -57 -39 -58 -35 0 4 -2 17 -5 28 -2 11 -5 30
-6 43 -1 12 -6 22 -10 22 -4 0 -8 7 -8 15 0 9 -13 29 -29 44 -23 22 -27 32
-18 41 9 10 9 11 -3 5 -12 -7 -13 -6 -3 7 7 8 10 18 6 21 -3 4 -1 7 7 7 9 0
10 3 1 14 -7 8 -8 15 -2 18 5 1 13 23 16 48 8 54 13 75 16 75 2 0 7 25 12 60
2 11 6 25 10 31 3 6 8 30 9 52 2 23 6 42 9 42 3 0 6 6 6 13 0 6 4 26 8 42 4
17 7 38 7 48 -1 9 3 17 7 17 4 0 7 10 6 23 -1 12 0 27 4 32 3 6 6 18 7 28 1 9
3 18 4 20 1 1 4 13 5 27 1 14 5 33 9 42 4 9 8 22 10 30 1 7 5 19 9 26 5 7 3
12 -5 12 -10 0 -10 2 1 9 8 5 11 16 8 25 -4 9 -2 16 4 16 6 0 9 8 8 18 -1 9 0
20 1 25 1 4 4 12 5 17 1 6 3 11 4 13 3 3 12 58 14 80 1 9 5 17 10 17 5 0 3 8
-4 17 -10 11 -10 14 -1 9 6 -4 12 -2 12 3 0 12 20 15 20 4z m251 -1106 c-6 -8
-8 -17 -4 -20 3 -4 0 -7 -7 -7 -11 0 -11 -3 -2 -12 7 -7 8 -16 3 -22 -5 -6
-12 -33 -15 -60 -3 -27 -8 -51 -10 -53 -2 -3 -26 -6 -53 -9 -26 -2 -61 -6 -78
-8 -124 -19 -127 -19 -116 2 20 37 117 115 198 159 81 45 103 52 84 30z m-209
-287 c-63 -32 -120 -64 -128 -71 -23 -19 -25 -6 -8 43 14 43 19 47 62 57 39
10 136 25 177 30 6 0 -41 -26 -103 -59z m248 -73 c0 -26 37 -132 74 -212 29
-63 37 -103 17 -91 -4 3 -34 8 -66 11 -33 4 -69 9 -80 12 -11 2 -90 6 -175 8
l-155 3 -6 28 c-15 65 -11 72 49 111 31 20 117 68 191 105 137 70 150 72 151
25z m-526 -38 c-6 -59 -10 -67 -38 -85 -17 -12 -73 -58 -125 -104 -100 -88
-109 -85 -48 18 29 49 206 247 213 239 2 -2 1 -32 -2 -68z m794 -140 c2 -5 8
-9 14 -9 15 0 38 -27 30 -35 -4 -5 -2 -5 4 -2 9 5 25 -5 81 -53 7 -5 15 -10
18 -10 3 0 15 -9 27 -20 12 -10 26 -16 32 -13 21 12 -3 -9 -35 -31 -31 -21
-35 -22 -84 -8 -48 13 -55 19 -92 81 -23 36 -58 100 -78 141 l-37 74 58 -53
c33 -30 61 -58 62 -62z m-778 -94 c0 -8 -4 -15 -9 -15 -5 0 -18 -3 -28 -7 -17
-6 -17 -5 1 15 22 26 36 28 36 7z m540 -70 c36 -9 79 -15 96 -15 26 0 36 -8
73 -62 23 -35 41 -67 40 -73 -2 -5 -35 -36 -74 -68 -38 -33 -114 -100 -168
-149 -93 -85 -99 -89 -113 -72 -47 61 -141 209 -175 275 -33 67 -79 175 -79
188 0 10 342 -11 400 -24z m-500 -75 c31 -90 103 -231 161 -317 27 -40 49 -76
49 -81 0 -5 -17 -6 -37 -3 -50 8 -242 6 -318 -4 -116 -16 -106 -22 -142 85
-17 52 -36 119 -41 148 l-9 53 60 67 c83 91 101 104 171 123 73 19 74 18 106
-71z m1117 -16 c30 -14 53 -27 51 -29 -7 -8 -127 39 -122 47 7 12 11 11 71
-18z m26 -79 c210 -81 506 -219 520 -242 3 -5 -26 -64 -65 -131 -50 -88 -74
-122 -85 -118 -30 12 -222 148 -323 229 -58 47 -145 125 -193 174 l-88 90 38
26 c21 14 42 26 46 26 5 1 72 -24 150 -54z m1927 -96 c0 -6 -4 -7 -10 -4 -5 3
-10 11 -10 16 0 6 5 7 10 4 6 -3 10 -11 10 -16z m-2200 -55 c138 -139 347
-308 517 -417 l72 -46 -25 -46 c-14 -25 -27 -45 -29 -45 -2 0 -70 33 -152 74
-225 112 -475 206 -712 266 l-43 11 28 31 c33 35 266 238 274 238 3 0 35 -30
70 -66z m665 45 c5 -5 19 -9 30 -9 12 0 25 -3 29 -7 6 -6 28 -11 69 -15 9 -1
17 -6 17 -11 0 -4 4 -6 8 -3 4 2 14 1 21 -3 10 -7 10 -12 0 -29 -13 -20 -15
-20 -119 35 -58 30 -107 57 -110 60 -9 9 44 -9 55 -18z m1489 -21 c21 -22 20
-31 -4 -53 -23 -21 -21 -22 -48 31 l-21 42 28 -2 c16 -1 36 -9 45 -18z m-240
-39 c4 6 15 11 25 11 22 0 78 -108 59 -115 -45 -15 -98 -25 -128 -25 -28 0
-45 10 -82 46 -51 48 -59 64 -30 59 9 -1 23 3 31 9 12 9 13 8 6 -3 -6 -11 -5
-12 6 -5 8 5 25 10 38 12 14 2 32 7 40 12 10 5 18 4 22 -2 4 -7 9 -7 13 1z
m-3196 -87 c12 -42 25 -84 28 -93 6 -19 -29 -36 -68 -34 -17 1 -28 -3 -28 -11
0 -7 -27 -31 -61 -54 -55 -37 -60 -39 -54 -18 23 72 137 288 153 288 4 0 17
-35 30 -78z m3648 -13 c25 -50 50 -103 55 -118 l9 -26 -18 25 c-9 13 -41 57
-70 98 -43 61 -50 77 -42 93 6 10 13 19 15 19 3 0 25 -41 51 -91z m-1298 37
c104 -52 247 -105 362 -135 l105 -28 3 -49 c2 -27 1 -95 -3 -152 l-7 -102 -76
63 c-126 103 -232 181 -375 275 l-134 88 19 37 c10 20 23 37 28 37 6 0 41 -15
78 -34z m639 -11 c21 -19 41 -35 46 -35 4 0 7 -4 7 -10 0 -11 -52 -13 -87 -4
-19 5 -23 13 -23 45 0 22 4 39 9 39 6 0 27 -16 48 -35z m-177 1 l0 -24 -52 15
c-75 22 -77 29 -8 31 57 2 60 0 60 -22z m803 -115 c37 -55 67 -102 67 -105 0
-4 11 -23 24 -44 21 -34 22 -41 11 -79 -16 -55 -56 -121 -94 -157 l-30 -29 -7
29 c-34 150 -91 341 -116 388 -8 15 -3 25 28 56 22 21 41 38 44 38 3 1 35 -43
73 -97z m-1348 1 c125 -78 248 -165 367 -260 177 -143 168 -133 168 -184 0
-25 -3 -47 -6 -50 -25 -25 -525 158 -692 254 -50 28 -52 31 -39 52 7 11 40 67
72 124 32 56 61 102 64 102 3 0 33 -17 66 -38z m-1606 -7 c11 -3 21 -12 21
-18 0 -7 -35 -50 -77 -97 -41 -47 -103 -120 -136 -162 -49 -63 -63 -76 -74
-66 -36 30 -203 299 -203 327 0 5 33 13 73 18 81 10 362 9 396 -2z m2724 -132
c21 -58 36 -108 34 -109 -2 -2 -23 19 -48 47 -24 28 -64 72 -87 98 l-44 46 44
11 c23 7 48 12 53 13 6 1 27 -47 48 -106z m-2383 65 c113 -29 222 -65 361
-119 147 -58 432 -195 427 -207 -11 -27 -151 -262 -155 -262 -14 0 -269 175
-372 256 -63 49 -178 151 -255 227 -155 151 -154 144 -6 105z m-910 -50 c33
-68 132 -224 201 -315 l32 -42 -27 -36 c-15 -19 -31 -33 -34 -31 -12 7 -154
-20 -196 -38 -53 -22 -76 -21 -76 5 0 11 -4 18 -9 15 -9 -6 -101 184 -124 259
-39 126 -40 119 10 156 25 19 50 33 55 31 18 -5 48 9 48 23 0 10 59 43 80 44
3 0 21 -32 40 -71z m3169 -23 c61 -64 81 -91 81 -112 0 -34 14 -60 24 -44 4 6
11 11 16 11 18 0 78 -97 87 -142 l10 -46 -66 -21 c-91 -29 -218 -44 -318 -39
l-84 4 -44 45 -44 44 9 140 c5 77 9 164 10 193 l0 52 119 0 118 0 82 -85z
m-2174 -287 c112 -94 294 -227 400 -292 44 -27 81 -50 83 -51 3 -2 -48 -95
-52 -95 -2 0 -56 27 -122 59 -208 103 -423 182 -602 221 -46 10 -92 26 -103
36 -15 13 -22 14 -33 4 -27 -22 -89 -3 -131 40 l-37 38 48 64 c56 75 142 177
196 234 l39 41 112 -111 c62 -61 153 -146 202 -188z m1148 -14 c123 -55 363
-136 469 -159 71 -15 77 -19 73 -38 -2 -12 -9 -51 -15 -87 -11 -65 -60 -293
-64 -297 -1 -2 -52 46 -112 105 -60 59 -129 123 -153 142 -24 19 -62 50 -85
69 -87 72 -234 176 -374 265 l-43 27 27 47 27 48 74 -39 c40 -21 120 -59 176
-83z m-2474 29 c8 -21 38 -87 68 -147 l54 -108 -33 -32 c-18 -17 -45 -46 -59
-64 l-26 -34 -17 62 c-30 108 -35 160 -24 263 6 53 14 97 17 97 4 0 13 -17 20
-37z m4048 -198 c-4 -61 -13 -111 -29 -154 -26 -68 -28 -69 -48 -8 -6 21 -32
79 -56 129 -25 50 -44 94 -42 98 2 4 23 24 47 45 25 20 61 57 80 82 l36 46 8
-74 c5 -41 6 -114 4 -164z m-1732 47 c116 -80 179 -128 275 -206 117 -96 324
-300 308 -304 -21 -4 -252 62 -391 112 -140 51 -332 137 -444 198 l-73 40 28
47 c15 26 49 86 77 134 l50 86 45 -26 c25 -14 81 -51 125 -81z m-1884 -122
c-31 -55 -59 -100 -62 -100 -7 0 -86 111 -94 132 -5 11 13 20 67 36 65 19 98
26 134 31 7 0 -13 -44 -45 -99z m355 -28 c200 -196 453 -395 662 -521 l72 -43
-22 -37 c-12 -20 -23 -38 -24 -40 -2 -2 -40 15 -86 37 -127 61 -230 100 -363
137 -89 24 -119 37 -117 48 2 10 -5 13 -23 9 -14 -2 -25 -9 -25 -14 0 -5 -8
-7 -17 -4 -10 3 -52 7 -93 11 l-75 6 -98 97 c-53 53 -100 104 -103 114 -3 9 9
45 27 80 37 76 141 248 149 248 3 0 64 -58 136 -128z m100 101 c20 -20 44 -26
44 -11 0 24 200 -28 405 -104 61 -22 175 -71 253 -109 l144 -69 -38 -67 c-21
-38 -54 -96 -74 -131 l-37 -63 -164 110 c-90 60 -213 149 -273 197 -107 86
-298 263 -284 264 4 0 14 -8 24 -17z m2858 -30 c10 -62 19 -326 12 -365 -5
-30 -13 -39 -46 -52 -22 -9 -46 -16 -53 -16 -6 0 -25 25 -41 55 -36 70 -124
201 -188 283 -27 34 -46 62 -41 62 4 0 2 4 -5 8 -7 5 41 13 110 20 68 7 146
18 173 26 72 20 72 20 79 -21z m-441 -21 c10 -9 16 -21 13 -27 -6 -17 11 -40
31 -40 31 0 268 -344 249 -362 -14 -14 -168 -32 -276 -32 -106 0 -257 13 -268
23 -2 3 7 53 21 113 14 59 33 151 42 203 27 166 15 148 98 142 45 -3 79 -10
90 -20z m632 -153 l23 -66 -33 -39 c-18 -21 -35 -37 -38 -34 -2 3 -7 70 -11
150 l-6 145 21 -45 c12 -25 31 -75 44 -111z m-3693 -25 l67 -91 -28 -74 c-15
-41 -34 -97 -41 -126 -11 -41 -17 -50 -26 -42 -22 18 -110 160 -150 242 -44
88 -43 91 35 177 l46 51 15 -23 c8 -12 45 -63 82 -114z m2120 -202 c155 -61
343 -120 457 -143 l62 -13 -6 -35 c-7 -37 -89 -262 -124 -342 l-21 -46 -49 10
c-45 9 -54 16 -117 93 -150 182 -362 368 -592 519 l-102 67 26 46 26 47 143
-71 c79 -40 213 -99 297 -132z m-404 -3 c59 -40 119 -81 133 -93 14 -12 41
-32 59 -46 112 -83 333 -298 350 -341 7 -16 18 -29 25 -29 7 0 18 -7 25 -14
26 -32 -282 72 -509 170 -143 63 -343 165 -339 174 9 21 142 250 145 250 3 0
52 -32 111 -71z m-1504 -46 l45 -48 -30 -13 c-41 -17 -111 -23 -106 -8 2 6 12
35 21 64 10 28 19 52 21 52 2 0 24 -21 49 -47z m3515 -5 c-23 -60 -93 -196
-114 -224 -18 -24 -18 -16 -1 101 10 64 19 93 31 100 10 5 36 24 59 42 22 18
42 32 43 32 2 1 -7 -23 -18 -51z m-3121 -91 c6 0 12 -5 12 -10 0 -6 3 -8 6 -4
4 3 14 -1 23 -10 14 -15 16 -15 19 -1 3 14 13 14 90 -7 123 -33 221 -69 344
-127 l107 -51 -24 -41 c-13 -22 -41 -71 -62 -108 l-39 -67 -109 70 c-135 87
-221 149 -349 254 -160 129 -150 117 -86 110 30 -4 61 -7 68 -8z m-719 -95
c52 -70 61 -88 61 -124 l0 -42 -26 35 c-31 41 -72 117 -96 179 -29 73 -26 71
61 -48z m525 0 c175 -155 347 -284 528 -397 l77 -48 -16 -27 -16 -27 -76 32
c-42 17 -98 38 -126 45 -27 7 -54 16 -60 20 -15 11 -55 19 -55 12 0 -4 -32 -6
-70 -5 -39 1 -83 -2 -99 -7 -25 -7 -37 0 -122 75 -52 45 -138 127 -191 182
-78 80 -98 106 -98 129 0 36 34 63 48 38 12 -22 42 -7 42 21 0 20 9 26 48 38
26 8 53 15 61 16 7 1 63 -43 125 -97z m3078 61 c-5 -36 -5 -36 -18 -12 -18 32
-17 37 4 42 9 3 17 5 17 6 1 0 -1 -15 -3 -36z m-52 -59 c25 -73 24 -86 -17
-211 l-26 -82 -51 -20 c-63 -26 -200 -61 -236 -61 -22 0 -29 7 -45 53 -27 78
-87 192 -147 282 l-53 80 210 1 c116 0 230 6 255 11 85 20 86 20 110 -53z
m-593 -16 c69 -101 116 -183 157 -278 20 -45 36 -82 36 -84 0 -18 -295 -11
-391 9 l-26 6 37 92 c20 51 54 145 76 210 21 64 44 117 50 117 6 0 34 -33 61
-72z m-1311 -120 c249 -127 557 -242 797 -299 53 -13 97 -26 97 -29 0 -12 -95
-182 -143 -258 -43 -67 -49 -72 -75 -66 -15 3 -78 19 -141 35 -63 16 -115 29
-117 29 -5 0 -109 154 -107 159 3 12 -18 41 -30 41 -7 0 -38 26 -69 58 -100
104 -253 230 -356 292 -23 14 -42 28 -42 32 0 12 42 79 49 76 3 -2 65 -33 137
-70z m-61 -153 c51 -38 115 -90 141 -113 85 -76 164 -154 164 -162 0 -4 13
-22 29 -40 16 -18 36 -47 46 -63 l17 -29 -23 7 c-118 36 -563 233 -637 283
-10 7 2 34 48 115 l62 107 30 -17 c16 -10 71 -49 123 -88z m-1179 -143 l62
-53 -16 -39 -17 -38 -39 31 c-22 18 -80 70 -128 117 -78 75 -88 89 -88 120 0
19 -3 46 -7 60 -5 19 15 5 83 -60 49 -47 117 -109 150 -138z m376 -11 c3 0 21
-13 39 -28 29 -25 31 -25 25 -6 l-7 22 73 -23 c58 -18 132 -48 156 -62 6 -4
-68 -133 -79 -140 -11 -7 -147 78 -273 170 -83 61 -87 65 -60 68 26 3 109 3
126 -1z m2616 -81 c-43 -79 -139 -212 -157 -218 -8 -3 -11 0 -8 5 3 5 7 35 8
67 2 37 7 60 16 63 18 7 16 23 -5 42 -11 9 -21 28 -24 44 -5 25 -2 27 26 28
17 0 56 7 86 14 97 22 96 23 58 -45z m-423 21 l210 -6 3 -65 c7 -135 5 -169
-7 -189 -22 -34 -417 -99 -443 -73 -6 6 -16 40 -24 77 -8 37 -27 98 -43 135
l-28 67 19 38 c19 36 21 37 61 30 23 -4 137 -11 252 -14z m-2364 -92 c41 -31
127 -91 192 -134 l117 -77 -33 -59 c-17 -32 -35 -59 -38 -59 -25 0 -349 234
-349 252 0 5 5 6 11 2 8 -5 8 -1 0 13 -6 11 -7 23 -4 27 3 3 0 14 -9 23 -16
20 -16 24 -5 66 7 24 10 26 25 15 9 -7 51 -38 93 -69z m804 -5 c178 -88 359
-163 538 -219 l117 -38 15 -51 c9 -28 18 -75 21 -104 5 -46 3 -57 -17 -78 -12
-13 -32 -24 -43 -24 -34 0 -274 66 -390 107 l-107 39 -23 55 c-12 31 -32 69
-44 86 -11 16 -24 41 -27 56 -4 15 -12 26 -19 25 -6 -1 -32 18 -59 44 -26 26
-74 66 -106 91 -58 43 -58 44 -44 71 8 15 17 26 21 24 4 -2 79 -40 167 -84z
m-172 -48 c25 -19 58 -41 74 -50 52 -27 83 -63 121 -137 60 -116 61 -112 -29
-74 -123 53 -299 145 -299 157 0 15 72 138 81 138 4 0 28 -15 52 -34z m1396
-21 c11 -30 23 -67 26 -82 2 -15 7 -41 11 -57 l6 -29 -88 7 c-49 4 -91 10 -93
12 -3 3 3 17 12 32 10 15 36 60 58 100 23 39 42 72 44 72 2 0 13 -25 24 -55z
m-1471 -269 c70 -35 168 -80 217 -101 50 -21 94 -42 100 -47 6 -5 -1 -18 -17
-35 -25 -25 -28 -25 -60 -12 -45 18 -51 19 -72 3 -18 -13 -17 -14 9 -24 15 -6
25 -13 22 -17 -4 -3 -28 2 -54 12 -82 30 -343 158 -343 168 0 9 62 117 67 117
2 0 61 -29 131 -64z m1055 43 l38 -10 -20 -27 c-10 -15 -36 -43 -58 -62 -21
-19 -35 -31 -31 -27 3 5 0 34 -8 65 -22 94 -28 89 79 61z m365 -55 l94 -7 -7
-36 c-4 -20 -18 -62 -32 -93 -21 -47 -30 -58 -57 -64 -41 -9 -282 -9 -325 1
l-33 7 44 47 c25 25 67 72 93 105 48 57 50 58 90 53 22 -3 82 -9 133 -13z
m452 -5 c-46 -37 -135 -96 -175 -116 -43 -22 -176 -66 -182 -60 -2 2 4 20 12
40 8 20 20 59 26 87 l11 50 101 1 c56 0 125 4 152 9 79 12 82 11 55 -11z
m-1405 -180 c50 -17 130 -41 179 -54 49 -13 91 -27 94 -30 9 -8 -131 -68 -158
-67 -26 1 -208 44 -250 60 -15 6 -19 11 -12 16 6 4 9 13 5 22 -5 13 35 84 47
84 3 0 46 -14 95 -31z m655 -138 l75 -7 -68 -13 c-63 -13 -101 -15 -222 -12
l-49 1 34 25 c31 22 41 24 95 19 33 -4 94 -10 135 -13z"/>
</g>
</svg>
